<mxfile host="app.diagrams.net" modified="2021-04-20T08:49:24.082Z" agent="5.0 (Macintosh; Intel Mac OS X 11_2_3) AppleWebKit/537.36 (KHTML, like Gecko) Chrome/89.0.4389.128 Safari/537.36" etag="By_Ukyuu1ebQeY3f8Ryb" version="14.6.2" type="github">
  <diagram id="elweQs0JhIptk8VoDEMX" name="Page-1">
    <mxGraphModel dx="988" dy="643" grid="1" gridSize="10" guides="1" tooltips="1" connect="1" arrows="1" fold="1" page="1" pageScale="1" pageWidth="827" pageHeight="1169" math="0" shadow="0">
      <root>
        <mxCell id="0" />
        <mxCell id="1" parent="0" />
        <mxCell id="T_g7l6KWpPpZYqHKG9a2-1" value="endorsing bodies" style="rounded=0;whiteSpace=wrap;html=1;dashed=1;verticalAlign=top;" vertex="1" parent="1">
          <mxGeometry x="780" y="100" width="265" height="400" as="geometry" />
        </mxCell>
        <mxCell id="T_g7l6KWpPpZYqHKG9a2-2" value="MSRs" style="rounded=0;whiteSpace=wrap;html=1;dashed=1;verticalAlign=top;" vertex="1" parent="1">
          <mxGeometry x="210" y="100" width="190" height="400" as="geometry" />
        </mxCell>
        <mxCell id="T_g7l6KWpPpZYqHKG9a2-3" value="MSR 1" style="ellipse;whiteSpace=wrap;html=1;rounded=1;shadow=1;comic=0;labelBackgroundColor=none;strokeWidth=2;fontFamily=Verdana;fontSize=12;align=center;" vertex="1" parent="1">
          <mxGeometry x="260" y="140" width="120" height="80" as="geometry" />
        </mxCell>
        <mxCell id="T_g7l6KWpPpZYqHKG9a2-4" value="&lt;span&gt;MSR 2&lt;/span&gt;" style="ellipse;whiteSpace=wrap;html=1;rounded=1;shadow=1;comic=0;labelBackgroundColor=none;strokeWidth=2;fontFamily=Verdana;fontSize=12;align=center;" vertex="1" parent="1">
          <mxGeometry x="230" y="270" width="120" height="80" as="geometry" />
        </mxCell>
        <mxCell id="T_g7l6KWpPpZYqHKG9a2-5" value="validate" style="edgeStyle=orthogonalEdgeStyle;rounded=0;orthogonalLoop=1;jettySize=auto;html=1;startArrow=classicThin;startFill=1;endArrow=none;endFill=0;" edge="1" parent="1" source="T_g7l6KWpPpZYqHKG9a2-13" target="T_g7l6KWpPpZYqHKG9a2-15">
          <mxGeometry relative="1" as="geometry" />
        </mxCell>
        <mxCell id="T_g7l6KWpPpZYqHKG9a2-6" style="edgeStyle=orthogonalEdgeStyle;rounded=0;orthogonalLoop=1;jettySize=auto;html=1;entryX=0.008;entryY=0.738;entryDx=0;entryDy=0;entryPerimeter=0;startArrow=classicThin;startFill=1;endArrow=none;endFill=0;" edge="1" parent="1" source="T_g7l6KWpPpZYqHKG9a2-13" target="T_g7l6KWpPpZYqHKG9a2-16">
          <mxGeometry relative="1" as="geometry" />
        </mxCell>
        <mxCell id="T_g7l6KWpPpZYqHKG9a2-7" style="edgeStyle=orthogonalEdgeStyle;rounded=0;orthogonalLoop=1;jettySize=auto;html=1;startArrow=classicThin;startFill=1;endArrow=none;endFill=0;" edge="1" parent="1" source="T_g7l6KWpPpZYqHKG9a2-13" target="T_g7l6KWpPpZYqHKG9a2-19">
          <mxGeometry relative="1" as="geometry" />
        </mxCell>
        <mxCell id="T_g7l6KWpPpZYqHKG9a2-8" style="edgeStyle=orthogonalEdgeStyle;rounded=0;orthogonalLoop=1;jettySize=auto;html=1;entryX=0;entryY=0.5;entryDx=0;entryDy=0;startArrow=classicThin;startFill=1;endArrow=none;endFill=0;" edge="1" parent="1" source="T_g7l6KWpPpZYqHKG9a2-13" target="T_g7l6KWpPpZYqHKG9a2-17">
          <mxGeometry relative="1" as="geometry" />
        </mxCell>
        <mxCell id="T_g7l6KWpPpZYqHKG9a2-9" value="endorse service" style="edgeStyle=orthogonalEdgeStyle;rounded=0;orthogonalLoop=1;jettySize=auto;html=1;entryX=0;entryY=0.5;entryDx=0;entryDy=0;startArrow=classicThin;startFill=1;endArrow=none;endFill=0;" edge="1" parent="1" source="T_g7l6KWpPpZYqHKG9a2-13" target="T_g7l6KWpPpZYqHKG9a2-18">
          <mxGeometry relative="1" as="geometry" />
        </mxCell>
        <mxCell id="T_g7l6KWpPpZYqHKG9a2-10" style="edgeStyle=orthogonalEdgeStyle;rounded=0;orthogonalLoop=1;jettySize=auto;html=1;startArrow=classicThin;startFill=1;endArrow=none;endFill=0;" edge="1" parent="1" source="T_g7l6KWpPpZYqHKG9a2-13" target="T_g7l6KWpPpZYqHKG9a2-4">
          <mxGeometry relative="1" as="geometry" />
        </mxCell>
        <mxCell id="T_g7l6KWpPpZYqHKG9a2-11" style="edgeStyle=orthogonalEdgeStyle;rounded=0;orthogonalLoop=1;jettySize=auto;html=1;entryX=1;entryY=0.5;entryDx=0;entryDy=0;startArrow=classicThin;startFill=1;endArrow=none;endFill=0;" edge="1" parent="1" source="T_g7l6KWpPpZYqHKG9a2-13" target="T_g7l6KWpPpZYqHKG9a2-3">
          <mxGeometry relative="1" as="geometry" />
        </mxCell>
        <mxCell id="T_g7l6KWpPpZYqHKG9a2-12" value="add service" style="edgeStyle=orthogonalEdgeStyle;rounded=0;orthogonalLoop=1;jettySize=auto;html=1;entryX=1;entryY=0.5;entryDx=0;entryDy=0;startArrow=classicThin;startFill=1;endArrow=none;endFill=0;" edge="1" parent="1" source="T_g7l6KWpPpZYqHKG9a2-13" target="T_g7l6KWpPpZYqHKG9a2-14">
          <mxGeometry relative="1" as="geometry" />
        </mxCell>
        <mxCell id="T_g7l6KWpPpZYqHKG9a2-13" value="distributed ledger for public maritime services" style="ellipse;whiteSpace=wrap;html=1;rounded=1;shadow=1;comic=0;labelBackgroundColor=none;strokeWidth=2;fontFamily=Verdana;fontSize=12;align=center;" vertex="1" parent="1">
          <mxGeometry x="530" y="260" width="120" height="120" as="geometry" />
        </mxCell>
        <mxCell id="T_g7l6KWpPpZYqHKG9a2-14" value="&lt;span&gt;MSR 3&lt;/span&gt;" style="ellipse;whiteSpace=wrap;html=1;rounded=1;shadow=1;comic=0;labelBackgroundColor=none;strokeWidth=2;fontFamily=Verdana;fontSize=12;align=center;" vertex="1" parent="1">
          <mxGeometry x="250" y="400" width="120" height="80" as="geometry" />
        </mxCell>
        <mxCell id="T_g7l6KWpPpZYqHKG9a2-15" value="&lt;span style=&quot;font-family: &amp;#34;helvetica&amp;#34;&quot;&gt;Validation nodes&lt;/span&gt;&lt;br style=&quot;font-family: &amp;#34;helvetica&amp;#34;&quot;&gt;&lt;span style=&quot;font-family: &amp;#34;helvetica&amp;#34;&quot;&gt;(hosted by one or more host members of MCC)&lt;/span&gt;" style="ellipse;whiteSpace=wrap;html=1;rounded=1;shadow=1;comic=0;labelBackgroundColor=none;strokeWidth=2;fontFamily=Verdana;fontSize=12;align=center;" vertex="1" parent="1">
          <mxGeometry x="520" y="465" width="140" height="85" as="geometry" />
        </mxCell>
        <mxCell id="T_g7l6KWpPpZYqHKG9a2-16" value="&lt;font face=&quot;helvetica&quot;&gt;IMO&lt;/font&gt;" style="ellipse;whiteSpace=wrap;html=1;rounded=1;shadow=1;comic=0;labelBackgroundColor=none;strokeWidth=2;fontFamily=Verdana;fontSize=12;align=center;" vertex="1" parent="1">
          <mxGeometry x="800" y="150" width="120" height="80" as="geometry" />
        </mxCell>
        <mxCell id="T_g7l6KWpPpZYqHKG9a2-17" value="&lt;font face=&quot;helvetica&quot;&gt;IALA&lt;/font&gt;" style="ellipse;whiteSpace=wrap;html=1;rounded=1;shadow=1;comic=0;labelBackgroundColor=none;strokeWidth=2;fontFamily=Verdana;fontSize=12;align=center;" vertex="1" parent="1">
          <mxGeometry x="820" y="300" width="120" height="80" as="geometry" />
        </mxCell>
        <mxCell id="T_g7l6KWpPpZYqHKG9a2-18" value="&lt;font face=&quot;helvetica&quot;&gt;MCC&lt;/font&gt;" style="ellipse;whiteSpace=wrap;html=1;rounded=1;shadow=1;comic=0;labelBackgroundColor=none;strokeWidth=2;fontFamily=Verdana;fontSize=12;align=center;" vertex="1" parent="1">
          <mxGeometry x="910" y="385" width="120" height="80" as="geometry" />
        </mxCell>
        <mxCell id="T_g7l6KWpPpZYqHKG9a2-19" value="&lt;font face=&quot;helvetica&quot;&gt;IHO&lt;/font&gt;" style="ellipse;whiteSpace=wrap;html=1;rounded=1;shadow=1;comic=0;labelBackgroundColor=none;strokeWidth=2;fontFamily=Verdana;fontSize=12;align=center;" vertex="1" parent="1">
          <mxGeometry x="910" y="220" width="120" height="80" as="geometry" />
        </mxCell>
        <mxCell id="T_g7l6KWpPpZYqHKG9a2-20" value="* Each MSR needs to be endorsed by MCC" style="text;html=1;strokeColor=none;fillColor=none;align=center;verticalAlign=middle;whiteSpace=wrap;rounded=0;" vertex="1" parent="1">
          <mxGeometry x="210" y="510" width="190" height="20" as="geometry" />
        </mxCell>
        <mxCell id="T_g7l6KWpPpZYqHKG9a2-21" value="* proof of authority" style="text;html=1;strokeColor=none;fillColor=none;align=center;verticalAlign=middle;whiteSpace=wrap;rounded=0;" vertex="1" parent="1">
          <mxGeometry x="495" y="560" width="190" height="20" as="geometry" />
        </mxCell>
      </root>
    </mxGraphModel>
  </diagram>
</mxfile>
